<svg width="406" height="179" viewBox="0 0 406 179" fill="none" xmlns="http://www.w3.org/2000/svg"><path d="M405.795 128.404c-4.13-.43-6.29.62-8.47 5.1-3.05 6.26-8.76 10.92-17.53 8.63 0 6.43-.35 12.24.07 18 .92 12.59-6.92 16.45-15.35 18.01-8.06 1.48-16.42.62-22.03-6.72-1.85-2.42-3.29-5.69-3.53-8.68-.52-6.58-.16-13.23-.16-20.34h-34.32c-5 0-10.04-.39-14.99.08-9.5.92-16.58-10.66-14.39-18.7 7.4-27.14 14.82-54.27 22.24-81.4 2.44-8.93 5.18-17.8 7.32-26.8 2.48-10.44 13.59-14.67 23.39-12.95 2.51.44 4.91 1.65 7.27 2.7 11.05 4.92 13.35 9.21 10.44 20.91-5.97 24-12.2 47.93-18.29 71.9-.39 1.54-.52 3.14-.82 5.01h12.15v-16.13c0-8.19 6.83-15.32 15.06-15.6 3.5-.12 7-.09 10.5-.01 8.66.19 15.44 7.13 15.44 15.73v15.8c13.23 1.59 15.81 3.8 20.66 17.46h5.34v8zm-88.47 2c8.49 0 16.99-.02 25.48.01 5.03.02 7.95 2.87 7.97 7.81.04 7.66-.21 15.33.18 22.97.09 1.73 2.01 4.44 3.53 4.79 3.14.73 6.67.64 9.84-.06 1.41-.31 3.18-2.84 3.31-4.48.42-5.3.17-10.65.16-15.98-.04-12.24-1.84-14.8 13.66-14.13 4.64.2 6.42-2.6 6.35-8.98-.06-5.82-1.07-6.93-6.35-6.97-2.16-.01-4.33.01-6.5-.01-4.98-.04-7.04-2.07-7.14-7.22-.09-4.49-.02-8.99-.02-13.49 0-11.6 0-11.5-11.52-11.34-4.09.06-5.62 1.78-5.52 5.75.15 6.49.14 12.99.01 19.48-.1 4.79-2.28 6.8-7.03 6.82-7.66.03-15.35-.41-22.97.13-6.72.48-9.18-4.12-7.62-9.84 1.5-5.49 3.18-10.92 4.58-16.44 5.55-21.9 10.94-43.84 16.59-65.71.97-3.74.32-6.25-3.34-7.42-2.6-.84-5.35-1.36-8.07-1.66-4.04-.44-6.25 1.32-7.23 5.55-1.83 7.91-4.28 15.67-6.42 23.51-7.42 27.12-14.83 54.25-22.19 81.39-.96 3.54-.13 5.69 4.29 5.57 8.65-.21 17.31-.05 25.97-.05zm-253.53 12c-6.11 0-11.74-.19-17.36.06-4.3.19-6.49-2.3-6.39-5.79.09-3.19 2.32-5.48 6.37-5.34 7.66.25 15.33.1 23 .07 4.3-.02 6.41 2.06 6.39 6.37-.03 7.67.18 15.34-.08 23-.13 4 1.95 5.29 5.26 5.6 1.82.17 3.66.02 5.5.04 4.4.05 6.63-1.63 6.4-6.52-.33-7.15-.11-14.33-.08-21.49.02-4.97 1.92-6.91 6.75-6.99 1.5-.02 3 0 4.5 0 7.15 0 8.77-1.6 8.75-8.64-.02-6.51-.88-7.56-7.47-7.31-11.69.44-12.81-.45-12.55-12.9.1-4.66.02-9.33.01-14 0-1 .37-2.36-.14-2.94-3.69-4.24-8.66-1.79-13.04-1.93-1.22-.04-3.53 2.91-3.64 4.6-.43 6.47-.13 12.99-.19 19.49-.05 5.74-2.01 7.63-7.73 7.64-6.83.01-13.67.07-20.5-.01-9.06-.11-10.96-2.49-8.78-11.16 4.09-16.25 8.31-32.47 12.46-48.7 2.79-10.87 5.58-21.75 8.34-32.63.74-2.9.21-5.51-2.91-6.45-3.24-.97-6.64-1.92-9.97-1.88-2.93.03-5.07 1.65-6.04 5.29-7.24 27.19-14.83 54.28-22.29 81.41-2.2 7.99-4.45 15.98-6.45 24.02-.83 3.33.28 5.49 4.36 5.16 2.98-.24 6-.15 8.99-.02 3.9.17 7.9 3.53 7.4 6.54-.64 3.9-3.03 5.99-7.35 5.48-2.47-.29-5.05-.41-7.48.01-12.81 2.19-20.62-9.52-16.91-22.64 9.64-34.14 18.69-68.42 27.95-102.65 3.6-13.31 16.24-18.41 30.8-12.39 11.31 4.68 14.05 9.61 11.07 21.6-4.68 18.78-9.74 37.46-14.55 56.21-1.72 6.7-3.17 13.47-4.84 20.59h12.44c0-5.45-.02-10.88 0-16.32.03-7.82 7-15.13 14.85-15.44 3.83-.15 7.67-.18 11.5.01 8.05.4 14.65 7.46 14.65 15.5v16.53c7.09-1.11 13.54 1.31 16.88 6.32 2.77 4.17 2.81 10.54 2.99 15.96.3 9.36-7.07 15.53-19.87 17.14 0 5.71-.35 11.53.07 17.28.91 12.54-6.94 16.44-15.39 17.98-8.07 1.47-16.42.6-22.02-6.75-1.84-2.42-3.26-5.69-3.5-8.69-.52-6.46-.16-12.99-.16-20.32z" fill="#666"/><path d="M273.055 87.794c-1.2 2.44-2.6 4.85-3.6 7.41-6.71 17.1-16.72 31.28-33.22 40.51-13.34 7.47-27.46 10.77-42.52 9.6-13.96-1.08-26.81-6.03-37.87-14.53-20.9-16.06-30.76-37.78-28.88-63.93 2.03-28.17 21.26-54.37 50.92-63.38 22.73-6.91 44.08-3.41 63.79 9.59 2.07 1.36 3.36 4.69 3.84 7.31.21 1.17-2.25 3.56-3.93 4.14-1.67.58-4.34.24-5.79-.8-20.03-14.38-41.54-15.48-63.17-5.37-16.42 7.68-27.08 21.23-31.89 39.11-5.19 19.29-1.34 37.08 10.52 52.41 11.26 14.56 26.58 22.91 45.68 23.63 17.56.66 32.45-4.98 45.17-16.89 21.64-20.28 25.18-53.87 7.72-78.9-1.32-1.89-1.77-5.39-.93-7.47.61-1.51 3.93-2.38 6.15-2.63 1.2-.14 3.01 1.33 3.88 2.55 6.8 9.56 11.94 19.92 12.78 31.79.51 7.15.02 14.37.16 21.56.02 1.5.81 2.97 1.19 4.29z" fill="green"/><path d="M199.725 64.954c8.02-8.01 15.59-15.48 23.04-23.08 2.75-2.81 5.41-3.86 8.39-.59 2.69 2.95 2.47 5.84-.38 8.65-7.44 7.34-14.83 14.72-22.64 22.48 7.55 7.49 14.73 14.6 21.89 21.74 3.25 3.24 3.89 7.61 1.51 9.99s-6.75 1.75-9.99-1.5c-7.13-7.17-14.23-14.38-21.68-21.91-7.57 7.6-14.7 14.78-21.84 21.94-3.24 3.25-7.62 3.86-9.99 1.45-2.35-2.39-1.7-6.74 1.57-9.99 7.08-7.03 14.19-14.04 21.75-21.51-3.55-3.6-6.86-6.99-10.21-10.35-4.22-4.25-8.54-8.4-12.67-12.74-2.72-2.86-2.63-5.86.33-8.63 2.82-2.64 5.22-1.85 7.68.67 7.56 7.7 15.22 15.32 23.24 23.38z" fill="green"/></svg>