<svg width="17" height="17" viewBox="0 0 17 17" fill="none" xmlns="http://www.w3.org/2000/svg"><path d="M16.13 6.715l-1.193-.202a6.74 6.74 0 0 0-.48-1.158l.703-.983c.299-.42.252-.991-.113-1.353L13.988 1.96a1.042 1.042 0 0 0-1.349-.113l-.987.703a6.667 6.667 0 0 0-1.2-.494l-.2-1.179A1.049 1.049 0 0 0 9.216 0H7.72c-.514 0-.951.37-1.037.877l-.205 1.208a6.572 6.572 0 0 0-1.155.486l-.976-.703a1.043 1.043 0 0 0-.611-.195c-.28 0-.547.11-.742.309L1.932 3.04a1.051 1.051 0 0 0-.114 1.353l.71.998c-.195.373-.351.76-.472 1.161l-1.179.199A1.05 1.05 0 0 0 0 7.788v1.495c0 .515.37.952.877 1.037l1.208.206c.124.398.287.785.486 1.154l-.7.973c-.298.42-.252.991.114 1.353l1.058 1.059a1.043 1.043 0 0 0 1.35.113l.998-.71c.359.188.735.34 1.122.462l.199 1.193c.085.508.522.877 1.037.877h1.499c.514 0 .951-.37 1.037-.877l.202-1.194a6.738 6.738 0 0 0 1.158-.479l.983.703a1.042 1.042 0 0 0 1.353-.114l1.059-1.058a1.05 1.05 0 0 0 .113-1.353l-.703-.987c.195-.373.359-.76.48-1.158l1.193-.199A1.05 1.05 0 0 0 17 9.247V7.753a1.036 1.036 0 0 0-.87-1.037zm-.082 2.533a.092.092 0 0 1-.078.092l-1.492.248a.477.477 0 0 0-.383.352 5.687 5.687 0 0 1-.618 1.488.48.48 0 0 0 .021.522l.878 1.236a.097.097 0 0 1-.011.12l-1.058 1.059a.09.09 0 0 1-.068.028.087.087 0 0 1-.053-.018l-1.232-.877a.48.48 0 0 0-.523-.02 5.686 5.686 0 0 1-1.487.617.471.471 0 0 0-.352.383L9.34 15.97a.092.092 0 0 1-.092.078H7.752a.092.092 0 0 1-.092-.078l-.249-1.492a.477.477 0 0 0-.351-.383 5.903 5.903 0 0 1-1.456-.597.49.49 0 0 0-.242-.064.468.468 0 0 0-.277.09l-1.243.884a.106.106 0 0 1-.053.017.095.095 0 0 1-.067-.028l-1.059-1.058a.096.096 0 0 1-.01-.121l.873-1.225a.486.486 0 0 0 .022-.526 5.631 5.631 0 0 1-.625-1.484.486.486 0 0 0-.384-.352l-1.502-.256a.092.092 0 0 1-.078-.092V7.788c0-.046.032-.085.078-.092l1.48-.249a.48.48 0 0 0 .388-.355A5.679 5.679 0 0 1 3.512 5.6a.474.474 0 0 0-.025-.518l-.884-1.243a.097.097 0 0 1 .01-.12l1.059-1.06a.09.09 0 0 1 .067-.028c.022 0 .04.008.054.018l1.225.874c.156.11.362.117.526.021.461-.277.962-.49 1.484-.625a.486.486 0 0 0 .352-.383l.255-1.503a.092.092 0 0 1 .093-.078h1.495c.046 0 .085.032.092.078l.249 1.481a.48.48 0 0 0 .355.387 5.765 5.765 0 0 1 1.523.625.48.48 0 0 0 .522-.02l1.225-.882a.106.106 0 0 1 .054-.017c.014 0 .042.003.067.028l1.058 1.058a.096.096 0 0 1 .011.121l-.877 1.232a.48.48 0 0 0-.021.522c.277.466.483.966.617 1.488a.471.471 0 0 0 .384.352l1.492.252a.092.092 0 0 1 .078.092v1.496h-.004z" fill="green"/><path d="M8.502 4.83A3.67 3.67 0 0 0 4.833 8.5a3.67 3.67 0 0 0 3.669 3.668A3.67 3.67 0 0 0 12.17 8.5a3.67 3.67 0 0 0-3.668-3.67zm0 6.378a2.711 2.711 0 0 1-2.71-2.71 2.711 2.711 0 0 1 2.71-2.709 2.711 2.711 0 0 1 2.71 2.71 2.711 2.711 0 0 1-2.71 2.71z" fill="green"/></svg>