<svg width="50" height="51" viewBox="0 0 50 51" fill="none" xmlns="http://www.w3.org/2000/svg"><path d="M19.563 23.108v2.143a5.357 5.357 0 0 0 2.143 4.263v.75a7.513 7.513 0 0 0-4.286 6.772v5.357c0 .592.48 1.071 1.072 1.071h12.856c.592 0 1.071-.48 1.071-1.071v-5.357a7.512 7.512 0 0 0-4.285-6.77v-.75a5.357 5.357 0 0 0 2.143-4.265V23.11a5.357 5.357 0 0 0-10.714 0zm8.57 0v2.143a3.18 3.18 0 0 1-1.606 2.766 1.07 1.07 0 0 0-.536.925v2.036c0 .454.286.858.713 1.01a5.363 5.363 0 0 1 3.573 5.048v4.286H19.563v-4.286a5.363 5.363 0 0 1 3.572-5.044 1.07 1.07 0 0 0 .713-1.01v-2.036a1.07 1.07 0 0 0-.535-.925 3.18 3.18 0 0 1-1.607-2.77v-2.143a3.214 3.214 0 0 1 6.428 0z" fill="green"/><path d="M49.442 19.544l-6.31-5.107v-8.47a1.07 1.07 0 0 0-1.07-1.071h-6.429c-.591 0-1.071.48-1.071 1.07V7.5L25.594.239a1.072 1.072 0 0 0-1.348 0L.397 19.543a1.07 1.07 0 0 0-.158 1.507l.001.002 2.7 3.32a1.071 1.071 0 0 0 1.505.157l2.262-1.83V48.82H3.492v2.143h42.855V48.82h-3.214V22.699l2.261 1.831c.46.372 1.133.302 1.506-.156l2.7-3.321a1.072 1.072 0 0 0-.156-1.507l-.002-.002zM36.705 7.038h4.285v5.664l-4.285-3.469V7.038zm4.285 41.783H8.85V20.966l16.07-13.01 16.07 13.01v27.855zm4.922-26.628L25.594 5.744a1.071 1.071 0 0 0-1.348 0L3.928 22.193 2.58 20.537 24.92 2.45l22.34 18.088-1.348 1.656z" fill="green"/></svg>