<svg width="36" height="42" viewBox="0 0 36 42" fill="none" xmlns="http://www.w3.org/2000/svg"><path d="M36 33.69c0 8.122-7.99 7.656-17.91 7.656S.182 41.746.182 33.69c0-8.123 7.99-21.638 17.91-21.638C28.01 12.12 36 25.634 36 33.69z" fill="#F2B233"/><path d="M18.09 12.119c9.92 0 17.91 13.515 17.91 21.638 0 8.122-7.99 7.656-17.91 7.656" fill="#DD981D"/><path d="M9.369 3.73c0-3.928 3.928-3.728 8.722-3.728 4.793 0 8.721-.2 8.721 3.728 0 3.928-3.928 10.52-8.721 10.52-4.794 0-8.722-6.592-8.722-10.52z" fill="#F2B233"/><path d="M18.09.002c4.794 0 8.722-.2 8.722 3.728 0 3.928-3.928 10.52-8.721 10.52" fill="#DD981D"/><path d="M25.747 12.851c0 .666-.533 1.198-1.198 1.198H11.633a1.193 1.193 0 0 1-1.199-1.198v-.333c0-.666.533-1.198 1.199-1.198h12.982c.666 0 1.199.532 1.199 1.198v.333h-.067z" fill="green"/><path d="M11.433 11.386h13.182c.666 0 1.199.533 1.199 1.199v.333c0 .666-.666 1.198-1.332 1.198" fill="#036703"/><path d="M18.09 36.22a7.99 7.99 0 1 0 0-15.979 7.99 7.99 0 0 0 0 15.979z" fill="green"/><path d="M12.432 22.572a7.997 7.997 0 0 1 11.318 0 7.997 7.997 0 0 1 0 11.318" fill="#036703"/><path d="M18.036 31.131c-2.206 0-3.995-.455-3.995-.921v1.075c.001.466 1.79.922 3.995.922s3.993-.456 3.994-.922V30.21c0 .466-1.788.921-3.994.921z" fill="#E4AF18"/><path d="M17.575 29.441c-2.206 0-3.995-.455-3.995-.921v1.074c.001.467 1.79.923 3.995.923s3.993-.456 3.994-.923V28.52c0 .467-1.788.922-3.994.922z" fill="#F4BF1A"/><path d="M18.497 27.751c-2.206 0-3.995-.455-3.995-.922v1.075c.001.467 1.79.923 3.995.923s3.993-.456 3.994-.923V26.83c0 .467-1.788.922-3.994.922z" fill="#E4AF18"/><path d="M21.57 25.006c0 .466-1.79.902-3.995.902-2.206 0-3.995-.436-3.995-.902 0-.467 1.789-.788 3.995-.788 2.206 0 3.994.321 3.994.788z" fill="#FFD949"/><path d="M17.575 25.908c-2.206 0-3.995-.455-3.995-.922v1.075c.001.466 1.79.922 3.995.922s3.993-.456 3.994-.922v-1.075c0 .467-1.788.922-3.994.922z" fill="#F4BF1A"/><path d="M14.195 25.458v1.075c.093.034.195.067.307.1v-1.076a4.371 4.371 0 0 1-.307-.099zm6.453.099v1.075c.111-.032.213-.065.307-.1v-1.074a4.272 4.272 0 0 1-.307.1zm-5.685.112v1.075c.098.02.2.04.307.058v-1.075a8.883 8.883 0 0 1-.307-.058zm4.917.058v1.075c.106-.018.208-.038.307-.058v-1.075a9.5 9.5 0 0 1-.308.058zm-4.149.068v1.075c.1.013.203.025.307.036v-1.075a9.244 9.244 0 0 1-.307-.036zm3.38.036v1.075c.105-.01.207-.023.308-.035v-1.076c-.1.013-.203.025-.308.036zm-2.611.039v1.076c.1.007.203.013.306.018V25.89a14.475 14.475 0 0 1-.307-.018zm1.843.019v1.075c.104-.005.206-.011.307-.018v-1.075c-.1.007-.203.013-.307.018zm-.768.019l-.154-.001v1.075a15.677 15.677 0 0 0 .307 0v-1.075h-.153z" fill="#DCA815"/><path d="M15.117 27.302v1.075c.093.034.195.067.307.099V27.4a4.306 4.306 0 0 1-.307-.1zm6.453.098v1.076c.111-.032.213-.065.307-.1v-1.074a4.256 4.256 0 0 1-.307.099zm-5.685.112v1.075c.098.02.2.04.307.058V27.57a8.845 8.845 0 0 1-.307-.058zm4.916.058v1.076a8.96 8.96 0 0 0 .308-.059v-1.075a9.5 9.5 0 0 1-.308.058zm-4.148.07v1.074c.1.013.202.025.307.036v-1.075a13.62 13.62 0 0 1-.307-.036zm3.38.035v1.075a8.94 8.94 0 0 0 .307-.036V27.64c-.1.013-.202.025-.307.036zm-2.612.039v1.076c.101.007.203.013.307.018v-1.075a14.525 14.525 0 0 1-.307-.019zm1.844.019v1.075c.104-.005.206-.011.307-.018v-1.076c-.1.007-.203.014-.307.019zm-.768.018h-.154v1.075a15.628 15.628 0 0 0 .307 0V27.75l-.153.001z" fill="#C49214"/><path d="M14.195 28.992v1.075c.093.034.195.067.307.099V29.09a4.321 4.321 0 0 1-.307-.1zm6.453.098v1.076c.111-.032.213-.065.307-.1v-1.074a4.225 4.225 0 0 1-.307.099zm-5.685.113v1.075c.098.02.2.04.307.058V29.26a9.133 9.133 0 0 1-.307-.058zm4.917.057v1.076c.106-.019.208-.038.307-.058v-1.075a9.5 9.5 0 0 1-.308.058zm-4.149.07v1.074c.1.013.203.025.307.036v-1.075a13.13 13.13 0 0 1-.307-.036zm3.38.035v1.075c.105-.01.207-.023.308-.036V29.33c-.1.013-.203.025-.308.036zm-2.611.039v1.076c.1.007.203.013.306.018v-1.075a14.481 14.481 0 0 1-.307-.019zm1.843.019v1.075c.104-.005.206-.011.307-.018v-1.076c-.1.007-.203.014-.307.019zm-.768.018h-.154v1.075h.307v-1.075h-.153z" fill="#DCA815"/><path d="M14.656 30.682v1.075c.093.034.195.067.307.099V30.78a4.392 4.392 0 0 1-.307-.1zm6.452.099v1.075c.112-.032.214-.065.308-.1v-1.074a4.27 4.27 0 0 1-.308.099zm-5.684.111v1.076c.098.02.2.04.307.058V30.95a8.89 8.89 0 0 1-.307-.059zm4.916.058v1.076a8.96 8.96 0 0 0 .308-.059v-1.075c-.099.021-.201.04-.308.059zm-4.148.07v1.074c.1.013.202.025.307.036v-1.075a12.397 12.397 0 0 1-.307-.036zm3.38.035v1.075c.105-.01.207-.023.308-.036V31.02c-.1.013-.203.025-.308.036zm-2.612.039v1.076c.101.007.204.013.308.018v-1.075a14.485 14.485 0 0 1-.308-.019zm1.844.019v1.075c.104-.005.206-.011.307-.018v-1.076a9.73 9.73 0 0 1-.307.019zm-.768.018h-.154v1.075h.307V31.13l-.153.001z" fill="#C49214"/><path d="M21.448 29.806c-.436.384-2.004.71-3.873.71-1.461 0-2.739-.2-3.435-.47-.064.058-.099.12-.099.184 0 .466 1.789.901 3.995.901 2.206 0 3.994-.435 3.994-.901 0-.161-.212-.305-.582-.424z" fill="#FCC62D"/><path d="M18.497 28.827c-2.03 0-3.706-.387-3.96-.812-.596.135-.957.315-.957.524 0 .467 1.789.902 3.995.902 2.206 0 3.994-.435 3.994-.901a.183.183 0 0 0-.011-.061c-.733.206-1.832.348-3.061.348z" fill="#FFD949"/><path d="M21.415 26.3c-.478.371-2.016.683-3.84.683-1.178 0-2.237-.13-2.968-.323-.068.06-.105.123-.105.19 0 .466 1.789.901 3.995.901 2.206 0 3.994-.435 3.994-.902 0-.223-.409-.412-1.076-.55z" fill="#FCC62D"/></svg>