<svg width="19" height="18" viewBox="0 0 19 18" fill="none" xmlns="http://www.w3.org/2000/svg"><path d="M2.505 3.313H.777C.345 3.313 0 2.955 0 2.418c0-.448.345-.806.777-.806h1.728C2.85.716 3.714 0 4.75 0s1.9.716 2.245 1.612h11.228c.431 0 .777.358.777.806a.789.789 0 0 1-.777.806H6.995c-.345.985-1.209 1.701-2.245 1.701s-1.9-.716-2.245-1.612zm2.245 0a.789.789 0 0 0 .777-.806.789.789 0 0 0-.777-.806c-.432-.09-.777.27-.777.717 0 .537.345.895.777.895zm5.7 6.538H.777A.789.789 0 0 1 0 9.045c0-.448.345-.806.777-.806h9.673c.346-.985 1.21-1.612 2.245-1.612 1.037 0 1.9.716 2.246 1.612h3.282c.431 0 .777.358.777.806a.789.789 0 0 1-.777.806H14.94c-.346.985-1.21 1.612-2.246 1.612s-1.9-.627-2.245-1.612zm2.245 0a.789.789 0 0 0 .778-.806.789.789 0 0 0-.778-.806.789.789 0 0 0-.777.806c0 .448.346.806.777.806zm-10.19 6.537H.777A.789.789 0 0 1 0 15.582c0-.448.345-.806.777-.806h1.728c.345-.985 1.209-1.612 2.245-1.612s1.9.717 2.245 1.612h11.228c.431 0 .777.358.777.806a.789.789 0 0 1-.777.806H6.995C6.65 17.373 5.786 18 4.75 18s-1.9-.627-2.245-1.612zm2.245 0a.789.789 0 0 0 .777-.806.789.789 0 0 0-.777-.806.789.789 0 0 0-.777.806c0 .448.345.806.777.806z" fill="#666"/></svg>