<svg width="54" height="50" viewBox="0 0 54 50" fill="none" xmlns="http://www.w3.org/2000/svg"><path d="M31.142 6.718c0 .836-.67 1.515-1.493 1.515H11.84a1.504 1.504 0 0 1-1.492-1.515c0-.837.668-1.516 1.492-1.516h17.81c.823 0 1.492.68 1.492 1.516zm-1.493 4.646H11.84c-.823 0-1.492.678-1.492 1.515 0 .836.668 1.515 1.492 1.515h17.81c.823 0 1.492-.679 1.492-1.515 0-.837-.67-1.515-1.493-1.515zm24.005 8.99l-5.97 27.273C47.383 49.013 46.169 50 44.774 50H2.985C1.336 50 0 48.644 0 46.97V10.606c0-1.674 1.336-3.03 2.985-3.03h1.492v-6.06C4.477.678 5.145 0 5.97 0h29.848c.823 0 1.493.679 1.493 1.515v6.06h1.492c1.649 0 2.985 1.357 2.985 3.031v3.03h2.985c1.649 0 2.985 1.357 2.985 3.03h2.984a2.96 2.96 0 0 1 2.327 1.135c.567.717.784 1.656.585 2.553zM4.477 10.606H2.985V46.97h1.492V10.606zm32.834 3.03h1.492v-3.03h-1.492v3.03zm-22.387 3.03h17.91c0-1.673 1.335-3.03 2.984-3.03V1.516H5.97V46.97h.002c0-.22 6.038-27.93 6.038-27.93.303-1.387 1.516-2.373 2.914-2.373zm26.201 25.117l-4.71-3.904c-.41-.34-.92-.458-1.406-.383l-.548-.455a9.14 9.14 0 0 0 1.434-5.921 9.075 9.075 0 0 0-3.244-6.129 8.908 8.908 0 0 0-5.663-2.05 8.875 8.875 0 0 0-6.94 3.343c-3.123 3.88-2.552 9.622 1.272 12.791a8.88 8.88 0 0 0 5.66 2.05c2.2 0 4.276-.818 5.896-2.263l.621.511c.025.497.239.985.65 1.324l4.707 3.904a1.774 1.774 0 0 0 2.52-.258 1.831 1.831 0 0 0-.249-2.56zm-10.36-14.444a5.903 5.903 0 0 0-3.774-1.366 5.92 5.92 0 0 0-4.626 2.228c-2.086 2.594-1.706 6.411.848 8.527a5.893 5.893 0 0 0 3.771 1.366c1.729 0 3.447-.76 4.627-2.227 2.088-2.593 1.705-6.41-.846-8.528z" fill="green"/></svg>