<svg width="16" height="18" viewBox="0 0 16 18" fill="none" xmlns="http://www.w3.org/2000/svg"><path d="M7.58.223L6.257 2.149c-.24.349.004.831.42.831h.809v9.247c0 .292.23.528.514.528a.52.52 0 0 0 .513-.528V2.98h.81c.418 0 .657-.485.42-.831L8.42.223a.507.507 0 0 0-.84 0z" fill="green"/><path d="M11.299 2.866a.535.535 0 0 0 .187.72c2.086 1.24 3.487 3.555 3.487 6.201 0 3.947-3.128 7.158-6.973 7.158-3.845 0-6.973-3.21-6.973-7.158 0-2.648 1.402-4.962 3.487-6.2a.535.535 0 0 0 .188-.72A.507.507 0 0 0 4 2.673C1.6 4.099 0 6.76 0 9.787 0 14.327 3.578 18 8 18c4.422 0 8-3.673 8-8.213 0-3.029-1.601-5.69-4-7.113a.507.507 0 0 0-.701.192z" fill="green"/></svg>