<svg width="172" height="29" viewBox="0 0 172 29" fill="none" xmlns="http://www.w3.org/2000/svg"><path d="M149.476 6.94c-.01 1.133-.91 1.992-2.059 1.966-1.16-.02-2.004-.914-1.988-2.105.015-1.155.879-1.967 2.059-1.952 1.191.015 1.998.869 1.988 2.09zm-47.378 5.083h-3.321c-.036-.22-.062-.44-.113-.654-.44-1.855-1.809-2.856-3.888-2.76a7.345 7.345 0 0 0-2.065.405c-.98.347-1.466 1.15-1.481 2.176-.016.976.485 1.702 1.4 2.003 1.292.43 2.621.736 3.924 1.114.833.24 1.681.46 2.478.797 1.916.803 3.041 2.193 3.199 4.339.184 2.488-.761 4.42-3.015 5.477a11.454 11.454 0 0 1-3.326.96c-2.029.267-4.037.103-5.851-1.026-1.799-1.12-2.642-2.82-2.897-4.865-.016-.102 0-.21.01-.311.005-.062.036-.118.077-.246.955 0 1.931-.015 2.897.02.138.006.352.256.388.425.44 1.977 1.727 3.086 3.746 3.045.96-.02 1.947-.133 2.876-.378.966-.255 1.605-.966 1.692-2.018.092-1.13-.358-2.06-1.436-2.443-1.323-.47-2.708-.771-4.062-1.16-.777-.224-1.559-.439-2.315-.72-3.873-1.456-3.96-6.494-1.395-8.779 1.64-1.46 3.602-1.936 5.723-1.86 1.512.057 2.964.384 4.22 1.314 1.733 1.277 2.418 3.035 2.535 5.145zM142.7 25.544h-2.953v-1.738c-.874.956-1.855 1.595-3.061 1.911-3.894 1.022-7.634-1.446-8.222-5.431-.301-2.05-.168-4.027.782-5.928 2.008-4.021 7.833-4.348 10.046-1.42.02.025.066.03.204.082V4.962h3.204v20.582zm-3.04-7.149c-.051-.373-.077-.833-.179-1.277-.368-1.564-1.206-2.76-2.846-3.143-1.615-.373-3.086-.03-4.119 1.36-1.098 1.476-1.159 3.147-.684 4.864.69 2.468 3.326 3.556 5.564 2.437 1.686-.838 2.167-2.412 2.264-4.24zm18.911-7.399c4.492.02 7.22 3.27 7.414 7.087.215 4.364-2.902 7.844-7.424 7.829-4.257-.02-7.307-3.122-7.373-7.379-.067-3.904 2.789-7.542 7.383-7.537zm4.205 7.542c-.056-.475-.086-.95-.178-1.415-.333-1.625-1.636-2.954-3.117-3.189-1.794-.28-3.317.19-4.323 1.773-.828 1.298-.869 2.75-.552 4.206.542 2.473 3.194 3.822 5.529 2.846 1.691-.71 2.59-2.162 2.641-4.22zm-49.058-7.21h3.203c0 1.186.006 2.346 0 3.506-.005 1.768-.081 3.536-.01 5.299.082 1.957 1.155 3.08 3.439 2.86 2.064-.198 2.657-1.42 2.673-3.698.015-2.392.005-4.788.005-7.18v-.776h3.198c.021.301.062.602.062.904-.021 2.723-.031 5.452-.087 8.176-.062 2.958-1.988 5.104-4.941 5.365a12.118 12.118 0 0 1-3.644-.215c-2.284-.51-3.515-2.136-3.827-4.4-.158-1.144-.133-2.32-.143-3.479-.015-2.06 0-4.119.005-6.183 0-.036.026-.076.067-.179zm-7.711 14.2V13.95h-2.115v-2.611h2.1V9.177c0-.352.02-.71-.005-1.063-.031-.398.102-.562.521-.552.868.026 1.742.006 2.693.006v3.699h2.396v2.616h-2.34v11.635c-1.104.01-2.131.01-3.25.01zm39.846-14.19h3.173v14.2h-3.173v-14.2zm23.719 14.175c-1.579-.005-1.579-.005-1.573-1.569 0-.27.03-.546 0-.812-.077-.623.153-.869.797-.818.618.051 1.247.026 1.875.01.378-.01.521.149.511.522-.015.71-.026 1.415-.005 2.125.01.404-.128.578-.542.547-.352-.025-.71-.005-1.063-.005z" fill="#606161"/><path d="M24.89 2.662a4.255 4.255 0 0 0-5.963.215L8.497 13.919V4.246A4.25 4.25 0 0 0 4.248 0 4.246 4.246 0 0 0 0 4.246v20.506c0 2.345 1.9 4.246 4.246 4.246 1.43 0 2.51-.802 3.465-1.799L25.109 8.707a4.242 4.242 0 0 0-.22-6.045z" fill="url(#a)"/><path d="M38.206 2.82l-10.9 12.167V9.106l-8.492 9.483v3.347c0 1.62.68 3.163 1.87 4.262a5.786 5.786 0 0 0 8.207-.389L44.51 8.487a4.244 4.244 0 0 0-.286-5.968 4.232 4.232 0 0 0-6.02.302z" fill="url(#b)"/><g opacity=".46"><mask id="d" maskUnits="userSpaceOnUse" x="12" y="1" width="15" height="12"><path opacity=".46" d="M21.512 12.54l3.597-3.828a4.253 4.253 0 0 0-6.188-5.835l-6.04 6.397a565.007 565.007 0 0 1 8.631 3.265z" fill="url(#c)"/></mask><g mask="url(#d)"><path opacity=".46" d="M21.512 12.54l3.597-3.828a4.253 4.253 0 0 0-6.188-5.835l-6.04 6.397a565.007 565.007 0 0 1 8.631 3.265z" fill="url(#e)"/></g><mask id="g" maskUnits="userSpaceOnUse" x="0" y="0" width="9" height="8"><path opacity=".46" d="M8.498 7.69V4.246A4.25 4.25 0 0 0 4.246 0 4.246 4.246 0 0 0 0 4.246v.506c2.846.945 5.677 1.932 8.498 2.938z" fill="url(#f)"/></mask><g mask="url(#g)"><path opacity=".46" d="M8.498 7.69V4.246A4.25 4.25 0 0 0 4.246 0 4.246 4.246 0 0 0 0 4.246v.506c2.846.945 5.677 1.932 8.498 2.938z" fill="url(#h)"/></g><mask id="j" maskUnits="userSpaceOnUse" x="27" y="1" width="19" height="18"><path opacity=".46" d="M35.753 18.196l8.758-9.709a4.244 4.244 0 0 0-.286-5.968 4.237 4.237 0 0 0-6.02.302L27.43 14.854a832.922 832.922 0 0 1 8.324 3.342z" fill="url(#i)"/></mask><g mask="url(#j)"><path opacity=".46" d="M35.753 18.196l8.758-9.709a4.244 4.244 0 0 0-.286-5.968 4.237 4.237 0 0 0-6.02.302L27.43 14.854a832.922 832.922 0 0 1 8.324 3.342z" fill="url(#k)"/></g><mask id="m" maskUnits="userSpaceOnUse" x="23" y="9" width="5" height="6"><path opacity=".46" d="M27.306 14.803V9.106l-3.77 4.21c1.262.49 2.519.991 3.77 1.487z" fill="url(#l)"/></mask><g mask="url(#m)"><path opacity=".46" d="M27.306 14.803V9.106l-3.77 4.21c1.262.49 2.519.991 3.77 1.487z" fill="url(#n)"/></g></g><path d="M48.45 11.134c4.783.026 7.69 3.485 7.89 7.542.23 4.645-3.086 8.355-7.905 8.33-4.532-.021-7.777-3.322-7.848-7.855-.067-4.149 2.969-8.027 7.864-8.017zm4.472 8.028c-.062-.501-.092-1.012-.194-1.508-.353-1.727-1.743-3.147-3.322-3.393-1.91-.301-3.526.2-4.604 1.886-.879 1.38-.925 2.923-.587 4.476.577 2.631 3.398 4.067 5.886 3.03 1.814-.756 2.77-2.304 2.82-4.491zm10.015-3.966c.409-1.354.991-2.37 1.758-3.045.761-.675 1.706-1.012 2.836-1.012.255 0 .68.046 1.267.143.112.02.2.036.255.041l-.613 4.354a5.068 5.068 0 0 0-.915-.276 4.984 4.984 0 0 0-.976-.092c-1.231 0-2.12.317-2.657.945-.541.629-.812 1.686-.812 3.163v6.142h-4.052v-13.95h3.996l-.087 3.587zM70.888 3.52h4.052v14.262l5.176-6.173h4.864l-5.62 6.173 6.172 7.777h-5.007l-5.59-7.394v7.394h-4.052V3.521h.005z" fill="#000"/><defs><linearGradient id="a" x1="22.38" y1="-9.579" x2="-.245" y2="26.156" gradientUnits="userSpaceOnUse"><stop stop-color="#E6E36E"/><stop offset=".324" stop-color="#73C162"/><stop offset=".73" stop-color="#03664C"/><stop offset="1" stop-color="#003539"/></linearGradient><linearGradient id="b" x1="41.268" y1="-1.226" x2="18.05" y2="34.579" gradientUnits="userSpaceOnUse"><stop offset=".063" stop-color="#E6E36E"/><stop offset=".362" stop-color="#73C162"/><stop offset=".703" stop-color="#03664C"/><stop offset="1" stop-color="#003545"/></linearGradient><linearGradient id="c" y1="7.041" x2="26.269" y2="7.041" gradientUnits="userSpaceOnUse"><stop stop-color="#fff"/><stop offset="1"/></linearGradient><linearGradient id="e" y1="7.041" x2="26.269" y2="7.041" gradientUnits="userSpaceOnUse"><stop stop-color="#147890"/><stop offset="1" stop-color="#fff"/></linearGradient><linearGradient id="f" y1="3.846" x2="26.27" y2="3.846" gradientUnits="userSpaceOnUse"><stop stop-color="#fff"/><stop offset="1"/></linearGradient><linearGradient id="h" y1="3.846" x2="26.27" y2="3.846" gradientUnits="userSpaceOnUse"><stop stop-color="#147890"/><stop offset="1" stop-color="#fff"/></linearGradient><linearGradient id="i" x1="18.813" y1="9.801" x2="45.603" y2="9.801" gradientUnits="userSpaceOnUse"><stop stop-color="#fff"/><stop offset="1"/></linearGradient><linearGradient id="k" x1="18.813" y1="9.801" x2="45.603" y2="9.801" gradientUnits="userSpaceOnUse"><stop stop-color="#147890"/><stop offset="1" stop-color="#fff"/></linearGradient><linearGradient id="l" x1="18.813" y1="11.956" x2="45.603" y2="11.956" gradientUnits="userSpaceOnUse"><stop stop-color="#fff"/><stop offset="1"/></linearGradient><linearGradient id="n" x1="18.813" y1="11.956" x2="45.603" y2="11.956" gradientUnits="userSpaceOnUse"><stop stop-color="#147890"/><stop offset="1" stop-color="#fff"/></linearGradient></defs></svg>