<svg width="18" height="18" viewBox="0 0 18 18" fill="none" xmlns="http://www.w3.org/2000/svg"><path d="M5.881 6.39l-.077.027 1.035.217a13.12 13.12 0 0 0 2.687.266c.485 0 .96-.025 1.421-.072a12.63 12.63 0 0 0 2.17-.38l.083-.017-.01-.004c2.045-.572 3.31-1.584 3.31-2.527 0-1.327-2.58-2.7-6.9-2.7-4.319 0-6.9 1.373-6.9 2.7 0 .923 1.212 1.912 3.181 2.49zm2.657-1.321c-.487-.16-.764-.431-.824-.808l-.032-.204-.202-.043a.332.332 0 0 1-.1-.036l.042-.138c.011-.02.076-.075.2-.11l.134-.04.057-.127a1.23 1.23 0 0 1 .244-.357c.045-.045.082-.08.112-.107.099-.09.163-.165.194-.262.357.118.756.13 1.033.118l.13-.002c1.279 0 1.591.35 1.714.614l.058.124.132.038c.123.035.19.09.198.105l.044.145a.333.333 0 0 1-.1.035l-.202.043-.032.204c-.06.377-.337.649-.824.808l-.233.075.064.558a.556.556 0 0 0 .375.442l.22.083c-.072.008-.147.01-.22.017a14.56 14.56 0 0 1-2.594-.028l.199-.071a.557.557 0 0 0 .382-.446l.064-.555-.233-.075zM9.6 1.8c4.195 0 6.3 1.346 6.3 2.1 0 .618-1.295 1.68-3.713 2.151l-1.252-.468-.003-.031c.601-.26.856-.661.957-1.012a.677.677 0 0 0 .32-.27.528.528 0 0 0 .049-.427l-.057-.185c-.06-.196-.236-.363-.48-.462-.443-.752-1.456-.843-2.195-.843-.052 0-.104.001-.155.003-.336.014-.64-.022-.856-.1a.783.783 0 0 1-.186-.087.381.381 0 0 0-.39-.028l-.18.102v.185c0 .058.004.127.017.203l.002.013a.469.469 0 0 0-.014.013c-.036.032-.08.073-.134.127a1.8 1.8 0 0 0-.307.415c-.24.1-.412.265-.472.459l-.057.185a.528.528 0 0 0 .05.427.678.678 0 0 0 .319.27c.1.35.356.751.957 1.012l-.004.03-1.233.446C4.547 5.544 3.3 4.508 3.3 3.9c0-.754 2.106-2.1 6.3-2.1z" fill="green"/><path d="M16.2 8.894V8.82c.947-.666 1.5-1.487 1.5-2.385V3.9c0-2.223-3.482-3.9-8.1-3.9-4.618 0-8.1 1.677-8.1 3.9v.681C.521 5.237 0 6.035 0 6.9v2.534c0 .99.67 1.885 1.8 2.583v1.917C1.8 16.214 5.358 18 9.9 18s8.1-1.786 8.1-4.066V11.4c0-.956-.626-1.818-1.8-2.506zm1.2 2.506c0 1.918-3.505 3.6-7.5 3.6-.173 0-.344-.005-.514-.01l-.152-.007a13.319 13.319 0 0 1-.727-.052l-.125-.013c-2.468-.265-4.567-1.155-5.486-2.28l-.036-.045-.04-.054c.422.18.881.34 1.374.473 1.332.876 3.404 1.377 5.706 1.377 4.066 0 6.9-1.575 6.9-2.989 0-.417-.253-.832-.734-1.21l.02-.064.03-.094c.01-.036.018-.072.026-.109.008-.031.015-.063.021-.095.007-.037.011-.074.016-.11l.012-.097c0-.009.003-.018.003-.028.621.42 1.206 1.024 1.206 1.807zm-6.26 4.15l.026-.002a15.197 15.197 0 0 0 1.134-.136v1.797a14.53 14.53 0 0 1-1.2.144v-1.8l.04-.002zm1.76-.248l.05-.012c.161-.034.32-.07.477-.11l.06-.016c.106-.027.21-.055.313-.084v1.797c-.289.083-.59.157-.9.222v-1.797zm1.5-.412c.016-.006.032-.01.048-.017l.067-.024c.124-.045.245-.092.364-.14l.101-.04.02-.009v1.789a9.224 9.224 0 0 1-.6.236V14.89zm1.2-.51c.052-.026.101-.053.152-.08a5.9 5.9 0 0 0 .422-.247l.026-.016v1.747c-.183.13-.383.255-.6.373v-1.776zm-12-.343c.187.12.39.232.6.34v1.78a5.826 5.826 0 0 1-.6-.373v-1.747zm-1.8-4.5l.025.016c.109.068.22.135.337.2l.086.047c.05.027.1.054.152.08v1.52h-.431a5.34 5.34 0 0 1-.169-.116V9.537zm1.32.672c.12.048.24.095.365.14l.067.024.048.017v1.794a9.224 9.224 0 0 1-.6-.236V10.16l.02.009.1.041zm1.453.471c.156.04.315.076.477.11l.05.011v1.797a14.575 14.575 0 0 1-.526-.12 12.255 12.255 0 0 1-.374-.101V10.58c.103.03.207.057.312.084l.06.016zm1.75.317c.169.02.339.037.51.051l.027.003.04.002v1.796a15.616 15.616 0 0 1-.615-.058c-.098-.011-.194-.025-.29-.038-.1-.014-.197-.031-.295-.047v-1.794a13.989 13.989 0 0 0 .624.085zM8.1 11.1c.201 0 .4-.007.6-.015v1.802l-.019.001c-.192.007-.386.012-.581.012-.201 0-.4-.01-.6-.019v-1.793h.04c.185.008.372.012.56.012zm-6-5.613l.015.017c.067.083.139.165.215.246l.052.053c.068.068.14.136.214.202l.052.048.052.044v1.671c-.386-.413-.6-.864-.6-1.334v-.947zm1.2 1.05l.026.016c.107.068.22.135.336.2l.086.047c.05.027.1.054.152.08v1.777a5.826 5.826 0 0 1-.6-.373V6.537zm1.2.623l.02.008.1.041c.12.048.24.095.365.14l.067.024.048.017v1.794a9.224 9.224 0 0 1-.6-.236V7.16zm1.2.42c.103.03.207.057.312.084l.06.016c.157.04.316.076.478.11l.05.011v1.797a12.333 12.333 0 0 1-.9-.222V7.58zm1.5.332a13.989 13.989 0 0 0 .624.085c.168.02.338.037.51.051l.027.002.039.003v1.8a14.974 14.974 0 0 1-1.2-.144V7.912zm2.4.188c.188 0 .375-.005.56-.011l.04-.001v1.793c-.2.008-.399.019-.6.019-.202 0-.402-.005-.6-.013V8.088h.04c.185.008.372.012.56.012zm1.266-.052A15.197 15.197 0 0 0 12 7.912v1.794c-.113.018-.223.039-.338.054l-.18.024c-.224.028-.453.048-.682.065V8.054l.04-.003.026-.003zm2.261-.368l.06-.016c.106-.027.21-.055.313-.084v1.796a7.318 7.318 0 0 1-.116.033h-.001a12.521 12.521 0 0 1-.708.174l-.075.015V7.801l.05-.011a12.8 12.8 0 0 0 .477-.11zm1.088-.331c.124-.045.245-.092.364-.14l.101-.04.02-.009v1.79a9.224 9.224 0 0 1-.6.236V7.39l.048-.016.067-.025zm1.323-.597c.116-.064.229-.131.336-.2l.026-.015v1.747c-.183.13-.383.255-.6.373V6.88l.151-.08.087-.048zm-8.18 6.73c.012.002.023.002.034.002l.038.002.076.002a16.854 16.854 0 0 0 1.012.007l.135-.005.056-.002.082-.003.14-.005.16-.01.244-.015.176-.015.223-.02c.058-.005.116-.013.174-.019l.217-.025.175-.023c.07-.01.139-.019.207-.03.059-.008.116-.018.174-.028.067-.01.135-.021.202-.033.057-.01.114-.022.17-.033l.195-.037.17-.037.186-.042.165-.04.182-.047.159-.044.178-.05.155-.049c.057-.018.114-.035.17-.054l.152-.052c.055-.02.11-.038.163-.058l.146-.055.158-.062.14-.059c.05-.022.102-.043.151-.066a7.782 7.782 0 0 0 .407-.196l.138-.072a7.697 7.697 0 0 0 .491-.295 7.577 7.577 0 0 0 .326-.232 5.288 5.288 0 0 0 .39-.334 5.33 5.33 0 0 0 .171-.175c.029-.03.056-.062.084-.093l.072-.086.074-.097.063-.087.049-.072c.265.23.412.464.412.662 0 .811-2.224 2.39-6.3 2.39-1.235 0-2.245-.141-3.054-.336.169.012.34.021.512.029zm5.242-1.297v-1.807l.057-.02c.11-.04.223-.077.33-.12.073-.029.141-.061.213-.092v1.803a9.26 9.26 0 0 1-.6.236zm-1.265-1.444c.126-.029.253-.056.376-.088.098-.026.192-.056.289-.084v1.807a12.2 12.2 0 0 1-.9.223v-1.803c.08-.017.157-.037.235-.055zm2.465.916V9.928c.207-.062.406-.128.6-.199v1.556c-.182.13-.383.254-.6.372zm-4.204-.63c.099-.01.195-.025.293-.036.145-.018.29-.033.433-.054l.178-.032v1.805l-.076.012-.271.04c-.07.009-.14.02-.212.028a14.578 14.578 0 0 1-.628.062H9.3V11.05c.098-.008.198-.013.296-.022zM15.6 9.434c0 .229-.052.453-.148.67l-.027.056c-.09.185-.213.364-.362.536l-.053.061-.01.01v-1.28c.21-.092.41-.19.6-.295v.242zM4.8 14.66c.193.082.393.158.6.23v1.796a9.224 9.224 0 0 1-.6-.236v-1.79zm1.2.419c.29.083.59.159.9.224V17.1a12.333 12.333 0 0 1-.9-.222v-1.8zm1.5.333a12.504 12.504 0 0 0 .7.094c.115.013.23.024.346.035l.154.014v1.8a14.974 14.974 0 0 1-1.2-.144V15.41zm9.6-9.924v.948c0 .47-.215.92-.6 1.334V6.097l.051-.044.053-.047c.075-.067.146-.134.213-.203l.053-.053c.076-.08.148-.162.214-.245l.016-.018zM9.6.6c4.206 0 7.5 1.45 7.5 3.3 0 1.918-3.505 3.6-7.5 3.6S2.1 5.818 2.1 3.9C2.1 2.05 5.394.6 9.6.6zM1.5 5.32v1.114c0 .07.004.138.01.207.002.023.007.045.01.068.005.045.01.09.02.136.004.026.012.053.018.08.01.04.018.08.03.12l.027.084c.012.038.025.075.04.112.01.03.023.058.035.087a2.601 2.601 0 0 0 .15.296 2.843 2.843 0 0 0 .18.27 3.64 3.64 0 0 0 .58.613l.088.076c.036.03.073.058.11.087l.095.073.12.085.099.069.131.084.102.064c.048.03.097.057.147.085a5.474 5.474 0 0 0 .288.157l.07.037c.088.044.178.087.27.129l.098.042c.061.028.123.055.187.081l.12.048.175.069c.044.017.089.032.133.048l.175.062.14.046c.06.02.118.038.178.056l.148.044.18.052.154.04.185.047a11.252 11.252 0 0 0 .349.08l.163.034a12.502 12.502 0 0 0 .73.128l.21.03.168.021.217.025.168.018.226.02.167.013.239.014.16.01.033.002c-.24.011-.48.017-.723.017C4.105 10.5.6 8.818.6 6.9c0-.66.424-1.192.9-1.58zM.6 9.434v-.948l.015.018c.067.083.139.165.215.245l.052.053c.068.069.14.136.214.203l.052.047.052.045v1.671c-.385-.413-.6-.864-.6-1.334zm1.8 4.5v-.948c.167.212.37.415.6.608v1.674c-.385-.413-.6-.864-.6-1.334zm6.9 3.453v-1.799h.043a15.525 15.525 0 0 0 1.117 0h.04v1.8a15.852 15.852 0 0 1-1.2 0zm8.1-4.4v.948c0 .47-.214.92-.6 1.333v-1.67l.051-.045.053-.047c.075-.067.146-.134.213-.203l.053-.053c.076-.08.148-.162.214-.245l.016-.018z" fill="green"/></svg>