<svg width="16" height="18" viewBox="0 0 16 18" fill="none" xmlns="http://www.w3.org/2000/svg"><path d="M11.941 0H1.106C.496 0 0 .473 0 1.055V4.64a.36.36 0 0 0 .369.351.36.36 0 0 0 .368-.351V1.055a.36.36 0 0 1 .369-.352H11.94a.36.36 0 0 1 .369.352v13.078a.36.36 0 0 1-.369.351H1.106a.36.36 0 0 1-.369-.351V7.605a.36.36 0 0 0-.368-.351.36.36 0 0 0-.369.351v6.528c0 .581.496 1.055 1.106 1.055H11.94c.61 0 1.106-.474 1.106-1.055V1.055C13.047.473 12.55 0 11.94 0z" fill="green"/><path d="M.63 5.966a.38.38 0 0 0-.522 0A.347.347 0 0 0 0 6.215c0 .092.04.183.108.248a.38.38 0 0 0 .521 0 .346.346 0 0 0 .108-.248.347.347 0 0 0-.108-.249zm1.476 10.03a.38.38 0 0 0-.521 0 .346.346 0 0 0-.108.248c0 .093.039.183.108.249a.38.38 0 0 0 .52 0 .346.346 0 0 0 .109-.249.346.346 0 0 0-.108-.248zM14.155 1.408a.36.36 0 0 0-.369.352v13.781a.36.36 0 0 1-.368.352H3.319a.36.36 0 0 0-.368.351.36.36 0 0 0 .368.352h10.099c.61 0 1.105-.473 1.105-1.055V1.76a.36.36 0 0 0-.368-.352z" fill="green"/><path d="M15.632 2.813a.36.36 0 0 0-.37.351v13.781a.36.36 0 0 1-.368.352H3.322a.36.36 0 0 0-.369.351.36.36 0 0 0 .369.352h11.572c.61 0 1.106-.473 1.106-1.055V3.165a.36.36 0 0 0-.368-.353zM5.97 2.602H2.434a.36.36 0 0 0-.369.351v3.375a.36.36 0 0 0 .369.352H5.97a.36.36 0 0 0 .368-.352V2.953a.36.36 0 0 0-.368-.351zm-.368 3.375h-2.8V3.305h2.8v2.672zm-.817 2.299a.381.381 0 0 0-.521 0l-.98.934-.456-.434a.381.381 0 0 0-.52 0 .34.34 0 0 0 0 .497l.715.683a.378.378 0 0 0 .521 0l1.24-1.183a.34.34 0 0 0 0-.497z" fill="green"/><path d="M10.823 8.754h-4.3a.36.36 0 0 0-.368.351.36.36 0 0 0 .368.352h4.3a.36.36 0 0 0 .369-.352.36.36 0 0 0-.369-.351zm-.209-6.152h-2.58a.36.36 0 0 0-.368.351.36.36 0 0 0 .369.352h2.58a.36.36 0 0 0 .368-.352.36.36 0 0 0-.369-.351zm0 1.688h-2.58a.36.36 0 0 0-.368.35.36.36 0 0 0 .369.352h2.58a.36.36 0 0 0 .368-.351.36.36 0 0 0-.369-.352zm0 1.687h-2.58a.36.36 0 0 0-.368.351.36.36 0 0 0 .369.352h2.58a.36.36 0 0 0 .368-.352.36.36 0 0 0-.369-.351zM4.785 10.96a.381.381 0 0 0-.521 0l-.98.935-.456-.434a.381.381 0 0 0-.52 0 .34.34 0 0 0 0 .497l.715.683a.378.378 0 0 0 .522 0l1.24-1.183a.34.34 0 0 0 0-.497zm6.038.466h-4.3a.36.36 0 0 0-.368.351.36.36 0 0 0 .368.352h4.3a.36.36 0 0 0 .369-.352.36.36 0 0 0-.369-.351z" fill="green"/></svg>