<svg width="18" height="18" viewBox="0 0 18 18" fill="none" xmlns="http://www.w3.org/2000/svg"><path d="M18 9c0-4.962-4.038-9-9-9S0 4.038 0 9a8.977 8.977 0 0 0 2.921 6.63l-.008.007.292.246c.019.017.04.03.058.045.155.129.316.251.48.37l.16.113c.174.12.354.235.537.343l.12.07c.201.114.406.221.616.32l.046.021a8.915 8.915 0 0 0 2.956.795l.089.007c.241.02.486.033.733.033.245 0 .487-.013.727-.032l.092-.007c.24-.022.478-.054.712-.094l.061-.011a8.915 8.915 0 0 0 2.146-.673l.075-.034a9.034 9.034 0 0 0 1.254-.716c.06-.041.12-.085.18-.128.143-.103.285-.21.422-.322.03-.024.063-.046.093-.07l.3-.25-.01-.008A8.977 8.977 0 0 0 18 9zM.655 9C.655 4.398 4.398.655 9 .655S17.346 4.398 17.346 9c0 2.48-1.089 4.71-2.812 6.239a2.454 2.454 0 0 0-.292-.176l-2.77-1.385a.725.725 0 0 1-.404-.653v-.967a6.67 6.67 0 0 0 1.058-1.944c.415-.197.683-.61.683-1.077v-1.16a1.19 1.19 0 0 0-.29-.775V5.574c.016-.17.076-1.128-.617-1.919-.603-.688-1.58-1.037-2.902-1.037-1.323 0-2.299.349-2.902 1.037-.693.79-.633 1.75-.616 1.92V7.1c-.186.217-.29.492-.29.776v1.16c0 .36.161.696.438.923a6.15 6.15 0 0 0 1.012 2.091v.947a.73.73 0 0 1-.38.641L3.674 15.05a2.373 2.373 0 0 0-.246.155A8.325 8.325 0 0 1 .655 9z" fill="green"/></svg>