<svg width="60" height="60" viewBox="0 0 60 60" fill="none" xmlns="http://www.w3.org/2000/svg"><path d="M59.048 46.367c-.04-.05-3.912-5.032-5.171-9.015-.3-.948-.672-2.283-1.1-3.812-2.048-7.322-3.91-13.55-5.974-15.614-2.238-2.238-10.885-3.73-14.439-4.262v-8.27A5.4 5.4 0 0 0 26.97 0H5.394A5.4 5.4 0 0 0 0 5.394v37.758a5.4 5.4 0 0 0 5.394 5.394H26.97c.583 0 1.145-.13 1.696-.319 1.174 1.09 2.504 1.918 3.898 2.763 2.749 1.667 5.592 3.391 8.073 7.672.24.416.686.672 1.166.672 12.832 0 17.397-11.537 17.441-11.655.17-.44.095-.94-.196-1.312zm-53.654-.518a2.7 2.7 0 0 1-2.697-2.697V5.394a2.7 2.7 0 0 1 2.697-2.697V45.85zm26.97-20.933l4.273 1.71c.21.732.564 1.918.92 2.842-.164.29-.305.611-.455.954-.245.558-.512 1.168-.886 1.642-1.35-.962-2.72-3.002-3.852-5.168v-1.98zM10.788 45.85H8.09V2.697h2.697V45.85zm2.697 0V2.697H26.97a2.7 2.7 0 0 1 2.697 2.697v16.17c-1.683-2.47-4.52-5.39-7.093-5.914-1.29-.269-2.43.057-3.3.927-3.247 3.248-1.388 8.767 1.192 12.507 2.065 2.993 3.596 6.53 3.814 8.802.035.378.051.736.068 1.089.084 1.8.198 3.675 2.34 6.874H13.486zm29.072 10.772c-2.743-4.39-5.974-6.347-8.594-7.937-1.839-1.114-3.426-2.076-4.554-3.628-2.22-3.054-2.285-4.444-2.367-6.206a24.116 24.116 0 0 0-.079-1.22c-.26-2.731-1.938-6.687-4.277-10.077-2.08-3.014-3.436-7.137-1.505-9.07.157-.157.366-.286.855-.191 2.113.43 5.523 4.36 6.38 6.485 1.032 2.556 3.827 8.666 7.476 10.181.415.169.89.125 1.265-.124 1.349-.898 1.964-2.303 2.414-3.329.13-.295.307-.7.303-.73a1.348 1.348 0 0 0 .439-1.711c-.411-.82-1.043-3.016-1.253-3.793a1.35 1.35 0 0 0-.802-.902l-5.894-2.358v-5.614c4.9.758 11.26 2.166 12.532 3.435 1.733 1.733 3.956 9.684 5.284 14.434.437 1.564.82 2.93 1.126 3.898 1.13 3.581 3.967 7.643 5.122 9.207-1.063 2.155-5.078 8.884-13.871 9.25z" fill="green"/></svg>