<svg width="16" height="19" viewBox="0 0 16 19" fill="none" xmlns="http://www.w3.org/2000/svg"><path d="M9.9 12.207c.352-.588.87-.89 1.557-.898.686-.008 1.033-.358 1.044-1.046.01-.685.308-1.203.897-1.554.59-.352.718-.825.382-1.425-.335-.599-.335-1.197 0-1.797.336-.598.209-1.07-.382-1.423-.589-.353-.888-.87-.897-1.558-.011-.685-.357-1.035-1.044-1.043-.687-.01-1.205-.31-1.557-.898-.352-.59-.826-.718-1.424-.382-.598.334-1.198.334-1.796 0-.6-.336-1.073-.209-1.425.382-.352.589-.87.889-1.556.898-.685.008-1.033.358-1.043 1.043-.011.688-.31 1.204-.898 1.558-.59.352-.72.824-.382 1.423.336.6.336 1.198 0 1.797-.338.6-.21 1.074.382 1.425.588.35.887.869.898 1.554.01.687.358 1.038 1.043 1.046.687.008 1.204.31 1.557.898.352.59.825.718 1.424.38.598-.33 1.198-.33 1.796 0 .598.337 1.073.21 1.424-.38zm-2.32-2.064a3.758 3.758 0 1 1-.002-7.515 3.758 3.758 0 0 1 .001 7.515z" fill="#fff"/><path d="M3.639 11.86c-.723 0-.819-.336-.819-.336L0 17.066l2.261-.254 1.25 1.882s2.606-5.436 2.606-5.4c-1.35-.034-.813-1.398-2.478-1.434zm8.66-.12c-2.06.216-1.641.728-2.113 1.125-.542.578-1.219.465-1.219.465l3.18 5.472.783-2.027 2.224.29-2.855-5.324zM8.364 5.556l-.786-1.593-.787 1.593-1.76.257 1.272 1.24-.3 1.755 1.575-.827 1.575.827-.3-1.754 1.272-1.241-1.76-.257z" fill="#fff"/></svg>