<svg width="56" height="56" viewBox="0 0 56 56" fill="none" xmlns="http://www.w3.org/2000/svg"><path d="M55.067 33.6h-5.448l-5.047-1.68-1.638-4.098v-3.088a4.19 4.19 0 0 0-3.74-4.153c0-.128.006-.256.006-.384V6.534a.933.933 0 0 0-.665-.894L19.869.04a.933.933 0 0 0-.536 0L.666 5.64a.934.934 0 0 0-.665.894v13.663c0 .433.03.86.045 1.291.023.63.059 1.256.115 1.879l.032.31a34.474 34.474 0 0 0 18.99 27.563.933.933 0 0 0 .835 0 34.935 34.935 0 0 0 4.034-2.376c.293.404.663.745 1.089 1.004A3.734 3.734 0 0 0 28 56h15.866a.936.936 0 0 0 .518-.157l5.362-3.576h5.32a.933.933 0 0 0 .933-.934v-16.8a.933.933 0 0 0-.933-.932zm-20.2-4.585l1.088 2.719h-5.422a24.198 24.198 0 0 0 3.061-11.624l3.74-1.121v1.208c0 .2-.007.399-.01.599a4.193 4.193 0 0 0-2.79 3.938v2.547c0 .594.112 1.183.333 1.734zm-13.4 6.452c.001.954.369 1.87 1.027 2.56-.346.252-.686.514-1.043.747l-1.85 1.183-1.846-1.186a22.315 22.315 0 0 1-8.952-11.223l22.904-6.871a22.329 22.329 0 0 1-3.351 11.057h-3.155a3.733 3.733 0 0 0-3.734 3.733zM2.375 25.89l-.024-.139 3.71-1.11c.11.56.243 1.12.392 1.668l-3.762 1.129a34.566 34.566 0 0 1-.316-1.548zm-.43-3.75l3.69-1.107c.027.585.07 1.166.137 1.743L2.089 23.88c-.01-.084-.017-.167-.026-.251-.048-.481-.09-.97-.119-1.49zm29.789-10.886l-24.266 7.28V11.86l12.165-4.344 12.1 3.456v.282zm0 1.95v1.784l-24.14 7.241a23.242 23.242 0 0 1-.11-1.75l24.25-7.276zm5.6 2.053v1.784L33.6 18.16v-1.785l3.734-1.12zm0-1.95l-3.734 1.12v-1.784l3.734-1.12v1.784zM7.856 24.098l15.187-4.555 8.69-2.608v1.785L8.242 25.768c-.148-.55-.28-1.106-.385-1.67zM1.868 7.23L19.6 1.909l17.733 5.32v2.344l-3.734 1.12v-.425a.933.933 0 0 0-.676-.897L19.857 5.638a.924.924 0 0 0-.57.017L6.221 10.322a.933.933 0 0 0-.62.879v7.892l-3.733 1.12V7.23zM19.6 49.353A32.63 32.63 0 0 1 3.124 29.251l3.89-1.167a24.166 24.166 0 0 0 9.73 12.257l2.352 1.511a.934.934 0 0 0 1.01 0l2.35-1.51.025-.017a3.69 3.69 0 0 0 1.73 3.94 3.722 3.722 0 0 0-.877 2.402c.002.13.01.26.026.388a32.859 32.859 0 0 1-3.76 2.298zm23.986 4.78H28.001a1.867 1.867 0 0 1-1.867-1.866 1.849 1.849 0 0 1 1.712-1.847.953.953 0 0 0 .854-.99.933.933 0 0 0-.934-.896h-.699a1.867 1.867 0 0 1 0-3.734.933.933 0 1 0 0-1.866h-.933a1.867 1.867 0 0 1 0-3.734.933.933 0 1 0 0-1.866H25.2a1.867 1.867 0 0 1 0-3.733h12.133a.932.932 0 0 0 .867-1.281l-1.6-3.998a2.778 2.778 0 0 1-.2-1.04v-2.548a2.333 2.333 0 1 1 4.666 0v3.267a.96.96 0 0 0 .066.347L43 33.014a.941.941 0 0 0 .572.54l4.961 1.653v15.627l-4.946 3.3zM54.133 50.4H50.4V35.467h3.733V50.4zm-5.02-38.415l-1.276 1.363c.426.399.826.824 1.2 1.273l1.435-1.194c-.423-.508-.877-.99-1.36-1.442zm5.021 11.582c0-.366-.012-.729-.037-1.088l-1.863.126a14.543 14.543 0 0 1 .011 1.75l1.867.107c.015-.297.022-.596.022-.895zm-6.547-12.843a15.877 15.877 0 0 0-1.674-1.064l-.9 1.634c.51.28 1.003.592 1.475.934l1.099-1.504z" fill="green"/><path d="M53.877 26.427l-1.838-.334c-.103.574-.244 1.14-.42 1.696l1.78.56c.199-.63.358-1.272.477-1.922zM44.12 8.813a15.65 15.65 0 0 0-1.887-.613l-.466 1.808c.565.145 1.12.326 1.663.54l.69-1.735zm6.397 21.535l1.634.905c.186-.342.373-.693.532-1.053l-1.694-.78c-.143.316-.3.625-.472.928zm-.447-14.316c.313.49.596 1 .847 1.527l1.685-.8a15.774 15.774 0 0 0-.96-1.733l-1.573 1.006zm1.497 3.148c.182.553.33 1.118.441 1.69l1.832-.355a15.696 15.696 0 0 0-.5-1.92l-1.773.585zm-9.579-1.378a5.93 5.93 0 0 1 3.746 5.532h1.867a7.787 7.787 0 0 0-4.92-7.266l-.333-.133-.694 1.732.334.135z" fill="green"/></svg>