<svg width="50" height="50" viewBox="0 0 50 50" fill="none" xmlns="http://www.w3.org/2000/svg"><path d="M25 23.958c.576 0 1.042-.466 1.042-1.041V7.292a1.041 1.041 0 1 0-2.084 0v15.625c0 .575.466 1.041 1.042 1.041z" fill="#fff"/><path d="M25 0C11.215 0 0 11.215 0 25s11.215 25 25 25 25-11.215 25-25S38.785 0 25 0zm0 47.917C12.364 47.917 2.083 37.637 2.083 25 2.083 12.364 12.363 2.083 25 2.083c12.636 0 22.917 10.28 22.917 22.917 0 12.636-10.28 22.917-22.917 22.917z" fill="#fff"/><path d="M30.61 11.539a1.041 1.041 0 1 0-.802 1.923A12.47 12.47 0 0 1 37.5 25c0 6.893-5.607 12.5-12.5 12.5S12.5 31.893 12.5 25c0-5.06 3.02-9.59 7.692-11.539a1.041 1.041 0 1 0-.801-1.922A14.549 14.549 0 0 0 10.417 25c0 8.041 6.542 14.583 14.583 14.583S39.583 33.041 39.583 25a14.549 14.549 0 0 0-8.974-13.461z" fill="#fff"/></svg>