<svg width="55" height="56" viewBox="0 0 55 56" fill="none" xmlns="http://www.w3.org/2000/svg"><path d="M44.827 48.147L42.8 42.063a6.132 6.132 0 0 0-4.721-4.094l-5.854-1.065v-.454a8.815 8.815 0 0 0 2.611-2.318h1.769a2.631 2.631 0 0 0 2.628-2.628V20.992c0-6.279-5.109-11.387-11.388-11.387s-11.387 5.108-11.387 11.387v6.132a3.51 3.51 0 0 0 2.793 3.431 8.776 8.776 0 0 0 4.214 5.895v.454L17.61 37.97a6.13 6.13 0 0 0-4.72 4.094l-.35 1.052-2.983-2.984a.878.878 0 0 1 0-1.24l3.46-3.458-6.495-6.495-3.91 3.91a6.092 6.092 0 0 0-1.796 4.337 6.09 6.09 0 0 0 1.796 4.335l11.839 11.838a6.093 6.093 0 0 0 4.336 1.797 6.066 6.066 0 0 0 4.308-1.77l4.267-3.91-1.331-1.328h18.796zm-7.346-16.643a.877.877 0 0 1-.876.876h-.737c.254-.58.447-1.19.571-1.825a3.49 3.49 0 0 0 1.042-.414v1.363zm-.876-2.872v-3.016c.52.304.876.863.876 1.508 0 .646-.355 1.204-.876 1.509zm-17.52 0a1.746 1.746 0 0 1-.876-1.508c0-.645.355-1.204.877-1.508v3.017zm0-5.888v1a3.472 3.472 0 0 0-.876.363v-3.115c0-5.312 4.323-9.635 9.636-9.635 5.313 0 9.636 4.323 9.636 9.635v3.115a3.443 3.443 0 0 0-.876-.362v-1h-.876a9.638 9.638 0 0 1-6.858-2.841l-1.026-1.026-1.026 1.026a9.638 9.638 0 0 1-6.858 2.84h-.875zm1.752 6.132v-4.413a11.357 11.357 0 0 0 7.008-3.113 11.352 11.352 0 0 0 7.008 3.113v4.413a6.955 6.955 0 0 1-.948 3.504h-6.06v1.752h4.62a6.97 6.97 0 0 1-4.62 1.752 7.016 7.016 0 0 1-7.008-7.008zm9.636 8.356v.041l-2.628 2.628-2.628-2.628v-.041a8.748 8.748 0 0 0 5.256 0zm-15.921 5.384a4.381 4.381 0 0 1 3.371-2.925l6.123-1.112 3.8 3.8 3.797-3.8 6.122 1.113a4.38 4.38 0 0 1 3.372 2.925l1.26 3.778H24.28l-3.412-3.412-3.791 3.43a.895.895 0 0 1-1.239 0L13.924 44.5l.628-1.884zm-8.03-11.2l4.017 4.017-.952.95-4.017-4.016.951-.952zm15.36 20.705a4.358 4.358 0 0 1-3.097 1.282c-1.17 0-2.27-.456-3.097-1.283L3.848 40.282a4.351 4.351 0 0 1-1.281-3.097c0-1.17.455-2.27 1.282-3.097l.482-.482 4.017 4.017-.032.032a2.632 2.632 0 0 0 0 3.717l6.282 6.281c.497.496 1.156.77 1.859.77a2.58 2.58 0 0 0 1.826-.74l.066-.058 4.035 4.036-.503.46zm1.795-1.646l-4.026-4.027 1.157-1.046 4.02 4.02-1.15 1.053zM52.372.845H40.11a2.631 2.631 0 0 0-2.628 2.628v7.008a2.631 2.631 0 0 0 2.628 2.628h2.34l-.906 5.283 8.453-5.283h2.376A2.631 2.631 0 0 0 55 10.48V3.473A2.631 2.631 0 0 0 52.372.845zm.876 9.636a.877.877 0 0 1-.876.876h-2.88l-5.562 3.476.596-3.476H40.11a.877.877 0 0 1-.876-.876V3.473c0-.483.393-.876.876-.876h12.263c.483 0 .876.393.876.876v7.008z" fill="green"/><path d="M51.496 4.349H40.985v1.752h10.511V4.349zm-3.504 3.504h-7.007v1.752h7.007V7.853zm3.504 0h-1.752v1.752h1.752V7.853zm-23.651-4.38c-11.445 0-21.304 7.917-23.867 18.96l-1.66-2.767-1.503.901 3.08 5.131 5.13-3.079-.901-1.502L5.75 22.54C8.232 12.438 17.317 5.225 27.845 5.225c2.301 0 4.572.342 6.749 1.016l.518-1.673a24.511 24.511 0 0 0-7.267-1.095zM54.574 20.24l-5.13-3.078-3.078 5.131 1.502.902 1.533-2.556A22.68 22.68 0 0 1 50.62 28c0 5.21-1.805 10.302-5.08 14.34l1.36 1.103A24.582 24.582 0 0 0 52.372 28c0-2.68-.432-5.296-1.273-7.801l2.574 1.544.901-1.502z" fill="green"/></svg>