<svg width="17" height="19" viewBox="0 0 17 19" fill="none" xmlns="http://www.w3.org/2000/svg"><path d="M11.973 17.14c-.108.388-.211.761-.317 1.135-.029.104-.066.207-.094.312-.03.117-.097.193-.223.204-.132.01-.25-.013-.324-.138-.172-.29-.347-.578-.517-.869-.279-.474-.554-.95-.832-1.424-.094-.16-.222-.251-.413-.316a5.941 5.941 0 0 1-.969-.458c-.199-.11-.356-.115-.556 0-.323.187-.669.333-.999.508a.585.585 0 0 0-.208.201c-.231.37-.454.744-.677 1.118-.235.397-.463.798-.705 1.191a.457.457 0 0 1-.222.175c-.165.058-.298-.02-.348-.188-.126-.427-.246-.856-.369-1.285l-.05-.163c-.312.078-.617.158-.923.23-.187.043-.375.089-.566.107-.26.024-.375-.134-.273-.371.094-.218.206-.43.324-.637.305-.536.616-1.07.93-1.6.053-.09.063-.165.023-.261-.09-.22-.176-.443-.252-.67a.314.314 0 0 0-.25-.224c-.258-.059-.515-.122-.772-.184a2.078 2.078 0 0 1-.194-.059c-.342-.12-.426-.23-.44-.59-.012-.3-.03-.601-.023-.902.003-.16-.052-.238-.192-.318-.306-.174-.595-.377-.886-.576-.179-.122-.228-.29-.162-.502.11-.35.205-.706.314-1.057.03-.097.027-.166-.043-.25-.21-.25-.415-.507-.608-.77-.21-.287-.209-.447-.002-.736.197-.274.405-.54.616-.803.063-.079.072-.145.042-.239C.703 6.391.6 6.05.496 5.707c-.065-.21-.022-.398.16-.525.307-.213.621-.415.938-.612.089-.055.131-.108.132-.216.003-.332.014-.664.034-.996.02-.365.14-.51.498-.596.263-.064.528-.115.794-.162.192-.034.317-.13.38-.319.059-.176.13-.35.203-.521.054-.129.116-.254.178-.38.094-.192.249-.288.466-.266.32.032.643.056.96.108a.447.447 0 0 0 .473-.178c.182-.226.394-.428.581-.65.163-.194.358-.225.574-.135.244.103.48.223.716.34.51.256.333.26.843.001.222-.112.444-.225.67-.326.246-.11.46-.075.639.147.192.238.409.457.603.693.084.102.175.138.299.12.241-.036.483-.07.725-.105.03-.005.062-.01.093-.013.516-.049.673.046.868.529.09.22.185.44.262.665a.377.377 0 0 0 .308.268l.732.151c.066.014.13.035.196.052.273.07.409.254.423.528.018.352.031.704.04 1.057.001.094.034.149.115.196.27.158.54.315.797.489.326.22.389.394.286.772-.084.304-.182.605-.284.904-.034.102-.016.17.047.252.219.283.428.575.644.86.152.201.152.4.001.6-.216.285-.431.571-.656.85-.064.08-.072.142-.042.237.112.355.217.713.319 1.071.064.229.01.418-.205.549-.31.188-.615.386-.928.57-.073.043-.102.081-.103.165-.004.348-.025.695-.024 1.042.002.288-.14.466-.402.54-.314.088-.638.141-.953.228a.43.43 0 0 0-.248.179 4.21 4.21 0 0 0-.258.631c-.02.056.011.142.044.2.318.577.643 1.15.96 1.726.12.218.237.439.337.666.116.264-.002.428-.29.385-.303-.044-.6-.125-.898-.193-.182-.043-.363-.092-.57-.144zM11.7 1.753c-.47.042-.924.08-1.379.126-.093.009-.154-.01-.215-.082-.238-.275-.485-.542-.721-.818-.085-.1-.158-.118-.273-.046-.199.123-.406.232-.61.347a.946.946 0 0 1-.992.001c-.208-.118-.42-.228-.624-.353-.11-.067-.178-.052-.262.043-.204.235-.421.459-.63.69a.58.58 0 0 1-.54.204c-.335-.043-.673-.065-1.008-.108-.105-.014-.143.018-.178.111-.116.31-.243.616-.365.925a.532.532 0 0 1-.41.343c-.32.068-.638.147-.96.205-.113.021-.14.069-.143.173-.008.3-.028.6-.036.901a.728.728 0 0 1-.377.654c-.228.134-.447.284-.679.413-.137.076-.172.155-.118.307.102.293.177.596.271.892a.58.58 0 0 1-.086.545c-.16.217-.329.428-.496.64-.195.243-.196.297-.005.538.17.215.344.429.508.649.112.15.141.316.083.5-.09.282-.17.566-.254.849-.066.229-.041.3.161.428.207.129.416.256.628.377.244.14.357.348.364.625.009.311.028.622.037.933.003.091.028.135.13.153.29.052.578.124.869.179.273.051.464.192.56.457.09.249.187.494.28.742.059.157.166.229.338.202.19-.03.383-.044.57-.083.397-.085.722.005.986.329.19.232.409.44.62.666.06-.032.114-.061.17-.089.31-.156.621-.31.931-.468a.344.344 0 0 1 .328.003c.21.103.421.202.63.306.156.079.308.164.461.246l.775-.81a.654.654 0 0 1 .593-.206c.263.036.525.074.789.102.226.025.282-.01.367-.222.095-.235.185-.473.27-.711.097-.272.29-.415.57-.466.292-.052.58-.123.871-.178.09-.016.118-.055.12-.143.007-.306.027-.612.033-.918a.726.726 0 0 1 .376-.653c.253-.152.498-.319.75-.476.083-.052.104-.108.07-.205-.097-.28-.178-.563-.271-.843a.732.732 0 0 1 .129-.73c.16-.204.32-.41.472-.619.149-.204.148-.22-.005-.418-.14-.181-.287-.356-.433-.531a.797.797 0 0 1-.158-.814c.092-.274.171-.554.266-.828.031-.092.01-.142-.069-.19-.25-.157-.496-.323-.749-.477a.746.746 0 0 1-.376-.656c-.01-.305-.027-.611-.034-.917-.003-.093-.026-.136-.127-.153-.266-.045-.529-.11-.794-.16-.362-.067-.595-.267-.707-.62-.085-.271-.191-.535-.292-.813zm-.56 15.807l.057-.011.054-.19c.069-.232.125-.47.21-.696.077-.203.145-.235.362-.203.17.025.335.07.503.106l.404.087c-.014-.058-.016-.085-.028-.106-.239-.436-.478-.872-.723-1.305-.02-.035-.08-.06-.125-.066a73.521 73.521 0 0 0-1.285-.15c-.044-.004-.108.009-.137.039-.157.164-.306.337-.466.515l1.174 1.98zm-6.204.025c.049-.059.071-.08.087-.106.343-.573.687-1.147 1.025-1.724.02-.033.004-.108-.023-.143-.119-.158-.257-.3-.37-.462-.078-.112-.17-.135-.292-.119-.355.048-.711.09-1.066.143a.242.242 0 0 0-.154.099c-.25.425-.49.854-.733 1.283-.013.024-.02.053-.036.1.073-.013.129-.02.183-.031.264-.056.526-.119.791-.167.168-.03.28.058.337.213.04.111.073.226.104.341.048.178.092.358.147.573z" fill="green"/><path d="M13.665 8.135c.156 2.473-1.812 5.022-4.525 5.602-.585.125-1.183.103-1.773.057-2.35-.182-4.384-1.938-4.947-4.267-.099-.41-.14-.837-.191-1.258a.57.57 0 0 1 .07-.294c.057-.121.171-.15.304-.13.127.02.197.09.215.21.048.318.08.639.14.954.381 1.985 1.545 3.337 3.455 3.947 2.822.9 5.622-.713 6.426-3.37.593-1.956-.056-4.05-1.674-5.392-.838-.694-1.807-1.043-2.884-1.121a4.05 4.05 0 0 1-.402-.049c-.19-.033-.288-.15-.277-.313.01-.158.131-.28.312-.29a3.1 3.1 0 0 1 .499.007c1.455.158 2.694.747 3.716 1.807.774.803 1.244 1.755 1.467 2.83.072.347.049.713.069 1.07z" fill="green"/><path d="M7.646 5.561l.622.04c.042.553.011 1.101.11 1.676.165-.112.3-.198.428-.291.508-.37 1.014-.744 1.522-1.114.18-.132.203-.127.337.045.234.3.235.302-.064.525-.54.405-1.081.81-1.625 1.21-.082.06-.117.118-.103.219.013.097.015.196.013.295a.926.926 0 0 1-.762.896.916.916 0 0 1-1.032-.568c-.167-.427-.031-.916.35-1.134.175-.1.214-.214.209-.396-.012-.404-.005-.809-.005-1.214v-.189zm.004 2.553c0 .176.125.31.294.314.157.004.342-.159.339-.3-.003-.139-.178-.286-.338-.284-.17 0-.295.115-.295.27zM5.189 3.13l.598-.306.264.596c-.171.072-.329.144-.492.201-.03.01-.1-.027-.122-.061-.085-.134-.16-.275-.248-.43zm3.083.562l.036.615h-.649V3.66l.613.033zm.036 8.259l-.037.617-.615.036v-.652h.652zM6.573 3.215c-.037-.164-.073-.314-.104-.465-.021-.097.02-.158.12-.18.121-.025.241-.067.364-.074.05-.003.107.063.157.1.01.008.01.03.013.045.089.43.072.456-.362.545-.055.011-.112.017-.188.03zM2.264 7.399c.034-.183.06-.34.094-.497.02-.097.069-.137.179-.103.143.044.292.067.458.103-.026.162-.053.318-.074.475-.012.093-.066.124-.15.11-.164-.026-.326-.056-.507-.088zm1.852-3.492c.14-.127.27-.244.398-.362.06-.055.107-.052.154.014.084.118.17.235.252.354.015.022.025.07.013.082-.104.107-.206.22-.326.307-.035.025-.146-.006-.188-.047-.108-.102-.197-.223-.303-.348zM2.862 5.504c.167.087.317.158.46.241.032.019.064.088.054.12-.049.151-.112.297-.179.468-.167-.064-.32-.12-.472-.183-.096-.039-.114-.108-.069-.201.067-.14.13-.28.206-.445zm.872-.238l-.535-.34.422-.516c.142.126.273.233.39.353.025.025.022.11-.002.145-.08.12-.174.23-.275.358zM12.42 8.42h-.637v-.577h.638v.577zm-8.888-.578h.58v.573h-.58v-.573z" fill="green"/></svg>